{"title":"The.Super.2011.DvDScr.XviD.AC3-XtremE","uid":6329844,"size":1471275683,"categoryP":"video","categoryS":"movies","magnet":"?xt=urn:btih:0b03fe438d6be9b742e1e8131abf9a4776e8b94c&amp;dn=The.Super.2011.DvDScr.XviD.AC3-XtremE&amp;tr=udp%3A%2F%2Ftracker.openbittorrent.com%3A80&amp;tr=udp%3A%2F%2Fopen.demonii.com%3A1337&amp;tr=udp%3A%2F%2Ftracker.coppersurfer.tk%3A6969&amp;tr=udp%3A%2F%2Fexodus.desync.com%3A6969","seeders":1,"leechers":0,"uploader":"sceneline","files":103,"time":1303240964,"description":"-\nhttp:// www. Speed. Cd       \nhttp:// www. Speed. Cd       the fast  and The Hottest Private Tracker on the net\n\nPlease Seed back to make the speed Faster!!!\n\nand don't forget to visit      ...... www. Speed. Cd..........\n-The.Super.2011.DvDScr.XviD.AC3-XtremE\n\n[img]http://leetleech.org/images/56691189285789964225.jpg[/img]\n\nIMDB Link &lt;a href=&quot;\nhttp://www.imdb.com/title/tt1640569/&quot; rel=&quot;nofollow&quot; target=&quot;_NEW&quot;&gt;\nhttp://www.imdb.com/title/tt1640569/&lt;/a&gt;\n\n\nTrailer\n\n\nDescription:\n\nGeorge Rossi, who immigrated to the US and served in the Vietnam war, is now a Superintendent of a Queens apartment building. He finds himself quickly slipping into a depraved world which is fueled by the tenants of the building.\n\nCast:\n\nDirectors:\nEvan Makrogiannis, Brian Weaver\nWriters:\nBrian Weaver, Evan Makrogiannis\nStars:\nDemetri Kallas, Lynn Lowry and Ron Braunstein \n\n\nScreenshots\n[img]http://leetleech.org/images/13618866848321272691.png[/img]\n[img]http://leetleech.org/images/70616857408782707786.png[/img]\n[img]http://leetleech.org/images/21200428131113162755.png[/img]\n[img]http://leetleech.org/images/72903320652506073076.png[/img]\n\n\nComplete name                    : The.Super.2011.DvDScr.XviD.AC3-XtremE\nFormat                           : AVI\nFormat/Info                      : Audio Video Interleave\nFile size                        : 1.37 GiB\nDuration                         : 1h 37mn\nOverall bit rate                 : 2 006 Kbps\nWriting library                  : VirtualDub-MPEG2 build 24586/release\n\nVideo\nID                               : 0\nFormat                           : MPEG-4 Visual\nFormat profile                   : Advanced Simple@L5\nFormat settings, BVOP            : 2\nFormat settings, QPel            : No\nFormat settings, GMC             : No warppoints\nFormat settings, Matrix          : Default (H.263)\nMuxing mode                      : Packed bitstream\nCodec ID                         : XVID\nCodec ID/Hint                    : XviD\nDuration                         : 1h 37mn\nBit rate                         : 1 740 Kbps\nWidth                            : 720 pixels\nHeight                           : 304 pixels\nDisplay aspect ratio             : 2.35:1\nFrame rate                       : 23.976 fps\nColor space                      : YUV\nChroma subsampling               : 4:2:0\nBit depth                        : 8 bits\nScan type                        : Progressive\nCompression mode                 : Lossy\nBits/(Pixel*Frame)               : 0.332\nStream size                      : 1.19 GiB (87%)\nWriting library                  : XviD 1.2.1 (UTC 2008-12-04)\n\nAudio\nID                               : 1\nFormat                           : AC-3\nFormat/Info                      : Audio Coding 3\nMode extension                   : CM (complete main)\nCodec ID                         : 2000\nDuration                         : 1h 37mn\nBit rate mode                    : Constant\nBit rate                         : 256 Kbps\nChannel(s)                       : 2 channels\nChannel positions                : Front: L R\nSampling rate                    : 48.0 KHz\nBit depth                        : 16 bits\nCompression mode                 : Lossy\nStream size                      : 179 MiB (13%)\nAlignment                        : Aligned on interleaves\nInterleave, duration             : 42 ms (1.00 video frame)\n\n\n\n\n\n\n\n\nNote:\nSpecial thanks to source for dvdr and kihllerz ;) for some extra help. Property of noosehill entertainment pops up here and there, nothing serious.\n\n\nJoin us in IRC: irc.tehxtre.me #chat\n\n\nEncoded and created by scumbag [XtremE]\n\n  \nEnjoy!","torrent":{"xt":"urn:btih:0b03fe438d6be9b742e1e8131abf9a4776e8b94c","amp;dn":"The.Super.2011.DvDScr.XviD.AC3-XtremE","amp;tr":["udp%3A%2F%2Ftracker.openbittorrent.com%3A80","udp%3A%2F%2Fopen.demonii.com%3A1337","udp%3A%2F%2Ftracker.coppersurfer.tk%3A6969","udp%3A%2F%2Fexodus.desync.com%3A6969"],"infoHash":"0b03fe438d6be9b742e1e8131abf9a4776e8b94c","infoHashBuffer":{"type":"Buffer","data":[11,3,254,67,141,107,233,183,66,225,232,19,26,191,154,71,118,232,185,76]},"announce":[],"urlList":[]}}